<svg width="512" height="512" viewBox="0 0 512 512" fill="none" xmlns="http://www.w3.org/2000/svg">
<path d="M89.7455 44.86L93.5255 45.94C85.4255 73.48 101.625 111.82 128.625 111.82C184.245 111.82 229.065 39.46 308.445 40C371.625 40 385.125 96.16 385.125 130.18C385.125 229 269.565 248.44 240.405 249.52L240.945 252.22C272.805 252.22 391.065 229 391.065 349.42C391.065 500.62 180.465 494.68 148.605 417.46C118.365 344.56 260.385 240.34 298.725 289.48C314.925 309.46 284.145 365.08 253.905 395.32L251.745 393.7C262.545 380.74 263.085 376.42 260.925 367.24C252.825 336.46 128.625 377.5 154.545 414.76C178.845 449.32 263.085 421.24 298.725 368.32C325.185 329.44 331.665 256 272.805 257.62C243.645 258.16 217.725 274.9 219.345 252.22C221.505 219.28 284.685 279.22 303.045 178.24C318.705 89.68 265.245 72.94 246.345 72.94C166.425 72.94 143.205 192.28 100.545 192.28C76.2455 192.28 70.8455 159.34 70.8455 133.96C70.8455 95.62 80.0255 60.52 89.7455 44.86ZM203.145 132.88L256.065 128.02C163.725 307.84 128.085 467.14 26.5655 467.14L46.5455 327.82C132.405 332.68 158.325 225.76 203.145 132.88ZM407.084 445V379.12H473.504V445H407.084Z" fill="#04C256"/>
</svg>
